<svg width="17" height="24" viewBox="0 0 17 24" fill="none" xmlns="http://www.w3.org/2000/svg">
<path d="M8.80859 23.4141L14.9961 20.6719C16.1211 20.1797 16.8594 19.0195 16.8594 17.7891V0.949219H0.757812V17.7891C0.757812 19.0195 1.49609 20.1797 2.62109 20.6719L8.80859 23.4141ZM8.80859 23.1328L2.72656 20.4609C1.63672 19.9688 1.00391 18.8789 1.00391 17.7891V1.19531H16.6133V17.7891C16.6133 18.8789 15.9805 19.9688 14.8906 20.4609L8.80859 23.1328ZM8.80859 21.9375C8.94922 21.6562 9.16016 21.4453 9.40625 21.2695C10.4609 20.5312 11.1641 19.3359 11.4102 18H14.6797V3.86719C12.9219 4.74609 11.7617 6.67969 11.5156 8.68359L11.0234 12.6562L11.2695 12.6211C11.7969 12.6211 12.2539 13.1133 12.2539 13.6055C12.2539 14.0625 11.9023 14.4492 11.4453 14.5547L10.8477 14.6953C9.86328 12.832 9.30078 11.0039 9.30078 9.21094C9.30078 7.59375 9.54688 5.97656 9.54688 4.32422C9.54688 3.58594 9.26562 2.91797 8.80859 2.39062C8.35156 2.91797 8.07031 3.58594 8.07031 4.32422C8.10547 5.97656 8.31641 7.59375 8.31641 9.21094C8.31641 11.0039 7.75391 12.832 6.76953 14.6953L6.17188 14.5547C5.71484 14.4492 5.36328 14.0625 5.36328 13.6055C5.36328 13.1133 5.82031 12.6211 6.34766 12.6211L6.59375 12.6562L6.10156 8.68359C5.96094 6.67969 4.69531 4.74609 2.9375 3.86719V18H6.20703C6.45312 19.3359 7.19141 20.4961 8.21094 21.2695C8.45703 21.4453 8.66797 21.6562 8.80859 21.9375ZM3.92188 13.1133V5.90625C4.55469 6.64453 4.97656 7.55859 5.11719 8.57812L5.50391 11.8477C5.01172 12.1289 4.625 12.5859 4.48438 13.1133H3.92188ZM13.1328 13.1133C12.9922 12.5859 12.6055 12.1289 12.1133 11.8477L12.5 8.57812C12.6055 7.55859 13.0625 6.64453 13.6953 5.90625V13.1133H13.1328ZM8.80859 15.6445C8.52734 15.3281 8.17578 15.0469 7.75391 14.9414C8.17578 14.168 8.5625 13.3594 8.80859 12.5156C9.05469 13.3594 9.44141 14.168 9.86328 14.9414C9.44141 15.0469 9.08984 15.3281 8.80859 15.6445ZM3.92188 17.0156V14.0977H4.48438C4.66016 14.7656 5.1875 15.293 5.85547 15.5039L6.3125 15.6094C6.20703 16.0664 6.13672 16.5234 6.13672 17.0156H3.92188ZM11.4805 17.0156C11.4805 16.5234 11.4102 16.0664 11.3047 15.6094L11.7617 15.5039C12.4297 15.293 12.957 14.7656 13.1328 14.0977H13.6953V17.0156H11.4805ZM7.08594 17.0156C7.08594 16.5938 7.15625 16.207 7.26172 15.8203C7.85938 15.8906 8.31641 16.418 8.31641 17.0156H7.08594ZM9.30078 17.0156C9.30078 16.418 9.75781 15.8906 10.3555 15.8203C10.4609 16.207 10.5312 16.5938 10.5312 17.0156H9.30078ZM8.31641 20.0742C7.78906 19.4766 7.40234 18.7734 7.22656 18H8.31641V20.0742ZM9.30078 20.0742V18H10.3906C10.2148 18.7734 9.82812 19.4766 9.30078 20.0742Z" fill="white"/>
</svg>
