<?xml version="1.0" standalone="no"?>
<!DOCTYPE svg PUBLIC "-//W3C//DTD SVG 20010904//EN"
 "http://www.w3.org/TR/2001/REC-SVG-20010904/DTD/svg10.dtd">
<svg version="1.0" xmlns="http://www.w3.org/2000/svg"
 width="512.000000pt" height="512.000000pt" viewBox="0 0 512.000000 512.000000"
 preserveAspectRatio="xMidYMid meet">
<metadata>
Created by potrace 1.14, written by Peter Selinger 2001-2017
</metadata>
<g transform="translate(0.000000,512.000000) scale(0.100000,-0.100000)"
fill="#000000" stroke="none">
<path d="M1748 5116 c-1 -2 -69 -6 -149 -10 -80 -3 -164 -8 -185 -11 -22 -2
-64 -7 -94 -10 -234 -24 -441 -80 -585 -157 -41 -22 -146 -88 -155 -98 -3 -3
-27 -23 -55 -45 -71 -57 -168 -158 -230 -241 -79 -105 -167 -277 -190 -374 -2
-8 -13 -51 -24 -95 -22 -91 -35 -167 -47 -285 -3 -30 -7 -68 -9 -85 -28 -204
-28 -2049 0 -2293 2 -20 7 -62 10 -92 30 -291 106 -528 222 -692 173 -246 400
-424 647 -508 47 -16 86 -27 86 -25 0 2 18 -2 39 -10 22 -7 56 -16 78 -19 43
-7 84 -14 128 -21 17 -3 57 -7 90 -11 33 -3 74 -7 90 -9 244 -28 2154 -28
2290 0 11 2 47 7 80 9 399 35 668 151 909 392 156 157 256 318 315 509 35 116
66 276 76 390 4 44 9 89 11 100 27 141 26 2045 -1 2280 -2 17 -6 57 -10 90
-22 208 -52 339 -112 489 -127 320 -442 614 -768 719 -103 33 -301 73 -402 82
-21 1 -65 6 -98 9 -33 4 -96 10 -140 13 -83 5 -1810 14 -1817 9z"/>
</g>
</svg>
